<svg xmlns="http://www.w3.org/2000/svg" viewBox="0 0 200 80">
  <rect width="200" height="80" fill="#121212" rx="10"/>
  <!-- Spotify circle icon -->
  <circle cx="32" cy="40" r="22" fill="#1DB954"/>
  <path d="M43 47.5c-.4 0-.6-.1-.9-.3-2.7-1.6-6-2.5-9.6-2.5-2 0-4 .3-5.8.7-.4.1-.7.2-1 .2-.7 0-1.2-.5-1.2-1.2 0-.7.4-1.1 1-1.3 2.1-.5 4.5-.8 6.8-.8 4 0 7.7.9 10.8 2.8.5.3.8.8.8 1.3 0 .7-.6 1.1-1.4 1.1h.5zm1.7-4.3c-.4 0-.8-.2-1.1-.4-3.1-1.9-7.3-2.9-11.7-2.9-2.4 0-4.5.3-6.2.8-.4.1-.8.2-1.1.2-.9 0-1.5-.7-1.5-1.5 0-.9.5-1.5 1.1-1.6 2-.5 4.4-.9 7.1-.9 4.8 0 9.5 1.1 13 3.4.6.4 1 .9 1 1.6 0 .8-.7 1.5-1.5 1.5h.9zm2-5c-.5 0-.8-.1-1.1-.3-3.5-2.1-8.5-3.2-13.4-3.2-2.7 0-5.2.3-7.5.9-.3.1-.6.2-1 .2-1 0-1.8-.8-1.8-1.8 0-.9.6-1.6 1.4-1.8 2.5-.7 5.4-1.1 8.5-1.1 5.5 0 10.8 1.2 14.8 3.6.7.4 1.1 1 1.1 1.8 0 1-.8 1.7-1.8 1.7h.8z" fill="white"/>
  <!-- Spotify wordmark -->
  <text x="65" y="46" font-family="Arial, sans-serif" font-size="24" font-weight="700" fill="#1DB954">Spotify</text>
</svg>
